<?xml version="1.0" encoding="UTF-8" standalone="no"?>
<!-- Created with Inkscape (http://www.inkscape.org/) -->

<svg
   width="92.69458mm"
   height="17.957804mm"
   viewBox="0 0 92.694576 17.9578"
   version="1.1"
   id="svg1"
   xml:space="preserve"
   xmlns="http://www.w3.org/2000/svg"
   xmlns:svg="http://www.w3.org/2000/svg"><defs
     id="defs1" /><g
     id="g2"
     transform="matrix(0.71358891,0,0,0.71358891,-4.0831885e-6,0)"><path
       style="font-weight:600;font-size:25.4px;line-height:1;font-family:Montserrat;-inkscape-font-specification:'Montserrat Semi-Bold';text-align:end;letter-spacing:-0.264583px;text-anchor:end;fill:#ffffff;stroke:#000000;stroke-width:0;stroke-linecap:round;stroke-linejoin:round;stroke-dashoffset:35.9055;paint-order:stroke fill markers"
       d="M 29.10999,17.78 V 2.794 h -5.8928 V 0 h 15.0876 v 2.794 h -5.8928 V 17.78 Z m 10.784387,0 V 4.2164 h 3.0226 v 3.7338 l -0.3556,-1.0922 q 0.6096,-1.3716 1.905,-2.0828 1.3208,-0.7112 3.2766,-0.7112 v 3.0226 q -0.2032,-0.0508 -0.381,-0.0508 -0.1778,-0.0254 -0.3556,-0.0254 -1.8034,0 -2.8702,1.0668 -1.0668,1.0414 -1.0668,3.1242 V 17.78 Z m 16.524813,0.1778 q -2.2606,0 -3.9624,-0.889 -1.6764,-0.9144 -2.6162,-2.4892 -0.9144,-1.5748 -0.9144,-3.5814 0,-2.032 0.889,-3.5814 0.9144,-1.5748 2.4892,-2.4638 1.6002,-0.889 3.6322,-0.889 1.9812,0 3.5306,0.8636 1.5494,0.8636 2.4384,2.4384 0.889,1.5748 0.889,3.7084 0,0.2032 -0.0254,0.4572 0,0.254 -0.0254,0.4826 h -11.303 V 9.906 h 9.6266 l -1.2446,0.6604 q 0.0254,-1.1684 -0.4826,-2.0574 -0.508,-0.889 -1.397,-1.397 -0.8636,-0.508 -2.0066,-0.508 -1.1684,0 -2.0574,0.508 -0.8636,0.508 -1.3716,1.4224 -0.4826,0.889 -0.4826,2.1082 v 0.508 q 0,1.2192 0.5588,2.159 0.5588,0.9398 1.5748,1.4478 1.016,0.508 2.3368,0.508 1.143,0 2.0574,-0.3556 0.9144,-0.3556 1.6256,-1.1176 l 1.7018,1.9558 q -0.9144,1.0668 -2.3114,1.651 -1.3716,0.5588 -3.1496,0.5588 z M 68.930793,17.78 63.114193,4.2164 h 3.302 l 5.0038,11.9634 h -1.6256 l 5.1816,-11.9634 h 3.048 l -5.8166,13.5636 z m 16.52481,0.1778 q -2.0828,0 -3.7084,-0.889 -1.6256,-0.9144 -2.5654,-2.4892 -0.9398,-1.5748 -0.9398,-3.5814 0,-2.032 0.9398,-3.5814 0.9398,-1.5748 2.5654,-2.4638 1.6256,-0.889 3.7084,-0.889 2.108205,0 3.733805,0.889 1.651,0.889 2.56539,2.4384 0.9398,1.5494 0.9398,3.6068 0,2.0066 -0.9398,3.5814 -0.91439,1.5748 -2.56539,2.4892 -1.6256,0.889 -3.733805,0.889 z m 0,-2.7178 q 1.1684,0 2.082805,-0.508 0.9144,-0.508 1.4224,-1.4732 0.5334,-0.9652 0.5334,-2.2606 0,-1.3208 -0.5334,-2.2606 -0.508,-0.9652 -1.4224,-1.4732 -0.914405,-0.508 -2.057405,-0.508 -1.1684,0 -2.0828,0.508 -0.889,0.508 -1.4224,1.4732 -0.5334,0.9398 -0.5334,2.2606 0,1.2954 0.5334,2.2606 0.5334,0.9652 1.4224,1.4732 0.9144,0.508 2.0574,0.508 z"
       id="text1"
       aria-label="Trevo" /><rect
       style="fill:#ffffff;stroke:none;stroke-width:0;stroke-linecap:round;stroke-linejoin:round;stroke-dasharray:none;stroke-dashoffset:35.9055;paint-order:stroke fill markers"
       id="rect5"
       width="7.2660151"
       height="17.660934"
       x="5.1974611"
       y="0.11906366"
       ry="3.6330075" /><rect
       style="fill:#ffffff;stroke:none;stroke-width:0;stroke-linecap:round;stroke-linejoin:round;stroke-dasharray:none;stroke-dashoffset:35.9055;paint-order:stroke fill markers"
       id="rect6"
       width="7.2660151"
       height="17.660934"
       x="5.3165278"
       y="-17.66094"
       ry="3.6330075"
       transform="rotate(90)" /></g></svg>
